<?xml version="1.0" encoding="UTF-8" standalone="no"?>
<!-- Created with Inkscape (http://www.inkscape.org/) -->

<svg
   xmlns:dc="http://purl.org/dc/elements/1.1/"
   xmlns:cc="http://creativecommons.org/ns#"
   xmlns:rdf="http://www.w3.org/1999/02/22-rdf-syntax-ns#"
   xmlns:svg="http://www.w3.org/2000/svg"
   xmlns="http://www.w3.org/2000/svg"
   xmlns:sodipodi="http://sodipodi.sourceforge.net/DTD/sodipodi-0.dtd"
   xmlns:inkscape="http://www.inkscape.org/namespaces/inkscape"
   width="425.19684"
   height="425.19684"
   id="svg2"
   version="1.1"
   inkscape:version="0.48.3.1 r9886"
   sodipodi:docname="drilltemplate.svg">
  <defs
     id="defs4">
    <marker
       inkscape:stockid="Arrow2Lend"
       orient="auto"
       refY="0.0"
       refX="0.0"
       id="Arrow2Lend"
       style="overflow:visible;">
      <path
         id="path3838"
         style="fill-rule:evenodd;stroke-width:0.62500000;stroke-linejoin:round;"
         d="M 8.7185878,4.0337352 L -2.2072895,0.016013256 L 8.7185884,-4.0017078 C 6.9730900,-1.6296469 6.9831476,1.6157441 8.7185878,4.0337352 z "
         transform="scale(1.1) rotate(180) translate(1,0)" />
    </marker>
  </defs>
  <sodipodi:namedview
     id="base"
     pagecolor="#ffffff"
     bordercolor="#666666"
     borderopacity="1.0"
     inkscape:pageopacity="0.0"
     inkscape:pageshadow="2"
     inkscape:zoom="4.2639588"
     inkscape:cx="227.8027"
     inkscape:cy="217.75773"
     inkscape:document-units="mm"
     inkscape:current-layer="layer1"
     showgrid="true"
     units="mm"
     inkscape:snap-object-midpoints="false"
     inkscape:snap-nodes="true"
     inkscape:window-width="1600"
     inkscape:window-height="849"
     inkscape:window-x="0"
     inkscape:window-y="0"
     inkscape:window-maximized="1">
    <inkscape:grid
       type="xygrid"
       id="grid2985"
       empspacing="10"
       visible="true"
       enabled="true"
       snapvisiblegridlinesonly="true"
       units="mm"
       spacingx="1mm"
       spacingy="1mm" />
  </sodipodi:namedview>
  <metadata
     id="metadata7">
    <rdf:RDF>
      <cc:Work
         rdf:about="">
        <dc:format>image/svg+xml</dc:format>
        <dc:type
           rdf:resource="http://purl.org/dc/dcmitype/StillImage" />
        <dc:title />
      </cc:Work>
    </rdf:RDF>
  </metadata>
  <g
     inkscape:label="Layer 1"
     inkscape:groupmode="layer"
     id="layer1"
     transform="translate(0,-627.16535)">
    <path
       style="fill:none;stroke:#000000;stroke-width:1px;stroke-linecap:butt;stroke-linejoin:miter;stroke-opacity:1"
       d="m 7.0866142,212.59841 411.0236258,0"
       id="path3757"
       inkscape:connector-curvature="0"
       transform="translate(0,627.16535)" />
    <path
       style="fill:none;stroke:#000000;stroke-width:1px;stroke-linecap:butt;stroke-linejoin:miter;stroke-opacity:1"
       d="m 212.59843,7.0866022 0,411.0236178"
       id="path3759"
       inkscape:connector-curvature="0"
       transform="translate(0,627.16535)" />
    <path
       sodipodi:type="arc"
       style="fill:none;stroke:#000000;stroke-width:0.9375;stroke-linecap:round;stroke-linejoin:round;stroke-miterlimit:4;stroke-opacity:1;stroke-dasharray:1.875,1.875;stroke-dashoffset:0"
       id="path3767"
       sodipodi:cx="212.59842"
       sodipodi:cy="212.59842"
       sodipodi:rx="141.73228"
       sodipodi:ry="141.73228"
       d="m 354.3307,212.59842 c 0,78.27658 -63.4557,141.73228 -141.73228,141.73228 -78.27658,0 -141.732285,-63.4557 -141.732285,-141.73228 0,-78.27658 63.455705,-141.732285 141.732285,-141.732285 78.27658,0 141.73228,63.455705 141.73228,141.732285 z"
       transform="translate(0,627.16535)" />
    <path
       sodipodi:type="arc"
       style="fill:none;stroke:#000000;stroke-width:0.9375;stroke-linecap:round;stroke-linejoin:round;stroke-miterlimit:4;stroke-opacity:1;stroke-dasharray:none;stroke-dashoffset:0"
       id="path3783"
       sodipodi:cx="212.59842"
       sodipodi:cy="70.866127"
       sodipodi:rx="3.5433071"
       sodipodi:ry="3.5433071"
       d="m 216.14173,70.866127 c 0,1.956914 -1.5864,3.543307 -3.54331,3.543307 -1.95692,0 -3.54331,-1.586393 -3.54331,-3.543307 0,-1.956914 1.58639,-3.543307 3.54331,-3.543307 1.95691,0 3.54331,1.586393 3.54331,3.543307 z"
       transform="translate(0,627.16535)" />
    <path
       transform="translate(141.73229,768.89764)"
       sodipodi:type="arc"
       style="fill:none;stroke:#000000;stroke-width:0.9375;stroke-linecap:round;stroke-linejoin:round;stroke-miterlimit:4;stroke-opacity:1;stroke-dasharray:none;stroke-dashoffset:0"
       id="path3783-8"
       sodipodi:cx="212.59842"
       sodipodi:cy="70.866127"
       sodipodi:rx="3.5433071"
       sodipodi:ry="3.5433071"
       d="m 216.14173,70.866127 c 0,1.956914 -1.5864,3.543307 -3.54331,3.543307 -1.95692,0 -3.54331,-1.586393 -3.54331,-3.543307 0,-1.956914 1.58639,-3.543307 3.54331,-3.543307 1.95691,0 3.54331,1.586393 3.54331,3.543307 z" />
    <path
       transform="translate(-141.73228,768.89764)"
       d="m 216.14173,70.866127 c 0,1.956914 -1.5864,3.543307 -3.54331,3.543307 -1.95692,0 -3.54331,-1.586393 -3.54331,-3.543307 0,-1.956914 1.58639,-3.543307 3.54331,-3.543307 1.95691,0 3.54331,1.586393 3.54331,3.543307 z"
       sodipodi:ry="3.5433071"
       sodipodi:rx="3.5433071"
       sodipodi:cy="70.866127"
       sodipodi:cx="212.59842"
       id="path3803"
       style="fill:none;stroke:#000000;stroke-width:0.9375;stroke-linecap:round;stroke-linejoin:round;stroke-miterlimit:4;stroke-opacity:1;stroke-dasharray:none;stroke-dashoffset:0"
       sodipodi:type="arc" />
    <path
       d="m 216.14173,70.866127 c 0,1.956914 -1.5864,3.543307 -3.54331,3.543307 -1.95692,0 -3.54331,-1.586393 -3.54331,-3.543307 0,-1.956914 1.58639,-3.543307 3.54331,-3.543307 1.95691,0 3.54331,1.586393 3.54331,3.543307 z"
       sodipodi:ry="3.5433071"
       sodipodi:rx="3.5433071"
       sodipodi:cy="70.866127"
       sodipodi:cx="212.59842"
       id="path3805"
       style="fill:none;stroke:#000000;stroke-width:0.9375;stroke-linecap:round;stroke-linejoin:round;stroke-miterlimit:4;stroke-opacity:1;stroke-dasharray:none;stroke-dashoffset:0"
       sodipodi:type="arc"
       transform="translate(1.2563481e-5,910.62993)" />
    <path
       style="fill:none;stroke:#000000;stroke-width:0.9375;stroke-linecap:butt;stroke-linejoin:miter;stroke-miterlimit:4;stroke-opacity:1;stroke-dasharray:2.8125, 2.8125;stroke-dashoffset:0"
       d="m 106.29921,811.41731 212.59843,0"
       id="path3807"
       inkscape:connector-curvature="0" />
    <path
       style="fill:none;stroke:#000000;stroke-width:1px;stroke-linecap:butt;stroke-linejoin:miter;stroke-opacity:1;marker-end:url(#Arrow2Lend)"
       d="m 152.3622,818.50392 0,-7.08661"
       id="path3809"
       inkscape:connector-curvature="0" />
    <path
       style="fill:none;stroke:#000000;stroke-width:1px;stroke-linecap:butt;stroke-linejoin:miter;stroke-opacity:1;marker-end:url(#Arrow2Lend)"
       d="m 272.83465,818.50392 0,-7.08661"
       id="path3811"
       inkscape:connector-curvature="0" />
    <path
       sodipodi:type="arc"
       style="fill:none;stroke:#000000;stroke-width:0.9375;stroke-linecap:round;stroke-linejoin:round;stroke-miterlimit:4;stroke-opacity:1;stroke-dasharray:0.9375,1.875;stroke-dashoffset:0"
       id="path4257"
       sodipodi:cx="186.02362"
       sodipodi:cy="186.02361"
       sodipodi:rx="186.02362"
       sodipodi:ry="186.02362"
       d="m 372.04724,186.02361 c 0,102.738 -83.28561,186.02362 -186.02362,186.02362 C 83.285612,372.04723 0,288.76161 0,186.02361 0,83.285597 83.285612,-1.5258789e-5 186.02362,-1.5258789e-5 288.76163,-1.5258789e-5 372.04724,83.285597 372.04724,186.02361 z"
       transform="translate(26.574806,653.74016)" />
  </g>
</svg>
